<svg xmlns="http://www.w3.org/2000/svg" viewBox="0 0 64 64" width="64" height="64">
    <defs>
        <linearGradient id="bgVideoGrad" x1="100%" y1="0%" x2="0%" y2="100%">
            <stop offset="0%" style="stop-color:#d53369;stop-opacity:1" />
            <stop offset="100%" style="stop-color:#daae51;stop-opacity:1" />
        </linearGradient>
        <linearGradient id="fgAppGrad" x1="0%" y1="0%" x2="0%" y2="100%">
            <stop offset="0%" style="stop-color:#4facfe;stop-opacity:1" />
            <stop offset="100%" style="stop-color:#00f2fe;stop-opacity:1" />
        </linearGradient>
        <filter id="layerShadow" x="-10%" y="-10%" width="120%" height="120%">
            <feGaussianBlur in="SourceAlpha" stdDeviation="1.5" />
            <feOffset dx="0" dy="2" result="offsetblur" />
            <feComponentTransfer>
                <feFuncA type="linear" slope="0.3" />
            </feComponentTransfer>
            <feMerge>
                <feMergeNode />
                <feMergeNode in="SourceGraphic" />
            </feMerge>
        </filter>
    </defs>
    <g transform="translate(6, 6)">
        <rect x="0" y="0" width="42" height="30" rx="5" ry="5" fill="url(#bgVideoGrad)" stroke="#ffffff" stroke-width="1.5" />
        <circle cx="21" cy="15" r="8" fill="#ffffff" opacity="0.2" />
        <polygon points="18,10 18,20 27,15" fill="#ffffff" />
        <path d="M45,10 c2,1.5 2,3.5 0,5 M48,7 c3,2.5 3,5.5 0,8" stroke="#d53369" stroke-width="2" fill="none" stroke-linecap="round" />
    </g>
    <g transform="translate(18, 22)" filter="url(#layerShadow)">
        <rect x="0" y="0" width="40" height="36" rx="5" ry="5" fill="url(#fgAppGrad)" stroke="#ffffff" stroke-width="2" />
        <path d="M2,2 h36 a3,3 0 0 1 3,3 v4 h-42 v-4 a3,3 0 0 1 3,-3 z" fill="#ffffff" opacity="0.4" />
        <circle cx="6" cy="6" r="1.5" fill="#ffffff" />
        <circle cx="11" cy="6" r="1.5" fill="#ffffff" />
        <rect x="6" y="16" width="28" height="3" rx="1.5" fill="#ffffff" opacity="0.7" />
        <rect x="6" y="22" width="20" height="3" rx="1.5" fill="#ffffff" opacity="0.7" />
        <rect x="6" y="28" width="24" height="3" rx="1.5" fill="#ffffff" opacity="0.7" />
    </g>
</svg>